<mxfile host="app.diagrams.net" agent="Mozilla/5.0 (Windows NT 10.0; Win64; x64) AppleWebKit/537.36 (KHTML, like Gecko) Chrome/130.0.0.0 Safari/537.36" version="24.8.4">
  <diagram id="C5RBs43oDa-KdzZeNtuy" name="Page-1">
    <mxGraphModel dx="1050" dy="557" grid="1" gridSize="10" guides="1" tooltips="1" connect="1" arrows="1" fold="1" page="1" pageScale="1" pageWidth="827" pageHeight="1169" math="0" shadow="0">
      <root>
        <mxCell id="WIyWlLk6GJQsqaUBKTNV-0" />
        <mxCell id="WIyWlLk6GJQsqaUBKTNV-1" parent="WIyWlLk6GJQsqaUBKTNV-0" />
        <mxCell id="jf5f9mkr0oQwujm6HEbA-21" value="" style="edgeStyle=orthogonalEdgeStyle;rounded=0;orthogonalLoop=1;jettySize=auto;html=1;" edge="1" parent="WIyWlLk6GJQsqaUBKTNV-1" source="WIyWlLk6GJQsqaUBKTNV-3" target="jf5f9mkr0oQwujm6HEbA-13">
          <mxGeometry relative="1" as="geometry" />
        </mxCell>
        <mxCell id="WIyWlLk6GJQsqaUBKTNV-3" value="List All claims With PR &amp;amp; Adjust amount" style="rounded=1;whiteSpace=wrap;html=1;fontSize=12;glass=0;strokeWidth=1;shadow=0;" parent="WIyWlLk6GJQsqaUBKTNV-1" vertex="1">
          <mxGeometry x="110" y="20" width="250" height="40" as="geometry" />
        </mxCell>
        <mxCell id="jf5f9mkr0oQwujm6HEbA-3" style="edgeStyle=orthogonalEdgeStyle;rounded=0;orthogonalLoop=1;jettySize=auto;html=1;entryX=0;entryY=0.5;entryDx=0;entryDy=0;" edge="1" parent="WIyWlLk6GJQsqaUBKTNV-1" source="jf5f9mkr0oQwujm6HEbA-0" target="WIyWlLk6GJQsqaUBKTNV-3">
          <mxGeometry relative="1" as="geometry" />
        </mxCell>
        <mxCell id="jf5f9mkr0oQwujm6HEbA-0" value="User" style="shape=umlActor;verticalLabelPosition=bottom;verticalAlign=top;html=1;outlineConnect=0;" vertex="1" parent="WIyWlLk6GJQsqaUBKTNV-1">
          <mxGeometry x="20" y="10" width="30" height="60" as="geometry" />
        </mxCell>
        <mxCell id="jf5f9mkr0oQwujm6HEbA-18" style="edgeStyle=orthogonalEdgeStyle;rounded=0;orthogonalLoop=1;jettySize=auto;html=1;exitX=0.5;exitY=1;exitDx=0;exitDy=0;entryX=0.5;entryY=0;entryDx=0;entryDy=0;" edge="1" parent="WIyWlLk6GJQsqaUBKTNV-1" source="jf5f9mkr0oQwujm6HEbA-11" target="jf5f9mkr0oQwujm6HEbA-13">
          <mxGeometry relative="1" as="geometry" />
        </mxCell>
        <mxCell id="jf5f9mkr0oQwujm6HEbA-11" value="On &quot;Create Invoice&quot; Button click" style="shape=parallelogram;perimeter=parallelogramPerimeter;whiteSpace=wrap;html=1;fixedSize=1;" vertex="1" parent="WIyWlLk6GJQsqaUBKTNV-1">
          <mxGeometry x="105" y="90" width="260" height="40" as="geometry" />
        </mxCell>
        <mxCell id="jf5f9mkr0oQwujm6HEbA-19" value="" style="edgeStyle=orthogonalEdgeStyle;rounded=0;orthogonalLoop=1;jettySize=auto;html=1;" edge="1" parent="WIyWlLk6GJQsqaUBKTNV-1" source="jf5f9mkr0oQwujm6HEbA-13" target="jf5f9mkr0oQwujm6HEbA-15">
          <mxGeometry relative="1" as="geometry" />
        </mxCell>
        <mxCell id="jf5f9mkr0oQwujm6HEbA-13" value="All Invoices will be stored in database" style="rounded=1;whiteSpace=wrap;html=1;fontSize=12;glass=0;strokeWidth=1;shadow=0;" vertex="1" parent="WIyWlLk6GJQsqaUBKTNV-1">
          <mxGeometry x="105" y="160" width="250" height="40" as="geometry" />
        </mxCell>
        <mxCell id="jf5f9mkr0oQwujm6HEbA-23" style="edgeStyle=orthogonalEdgeStyle;rounded=0;orthogonalLoop=1;jettySize=auto;html=1;exitX=0.5;exitY=1;exitDx=0;exitDy=0;entryX=0.5;entryY=0;entryDx=0;entryDy=0;" edge="1" parent="WIyWlLk6GJQsqaUBKTNV-1" source="jf5f9mkr0oQwujm6HEbA-15" target="jf5f9mkr0oQwujm6HEbA-22">
          <mxGeometry relative="1" as="geometry" />
        </mxCell>
        <mxCell id="jf5f9mkr0oQwujm6HEbA-15" value="List All Invoices with invoice details" style="rounded=1;whiteSpace=wrap;html=1;fontSize=12;glass=0;strokeWidth=1;shadow=0;" vertex="1" parent="WIyWlLk6GJQsqaUBKTNV-1">
          <mxGeometry x="105" y="230" width="250" height="40" as="geometry" />
        </mxCell>
        <mxCell id="jf5f9mkr0oQwujm6HEbA-16" value="Popup 1" style="text;strokeColor=none;fillColor=none;html=1;fontSize=15;fontStyle=1;verticalAlign=middle;align=center;" vertex="1" parent="WIyWlLk6GJQsqaUBKTNV-1">
          <mxGeometry x="364" y="20" width="100" height="40" as="geometry" />
        </mxCell>
        <mxCell id="jf5f9mkr0oQwujm6HEbA-17" value="Popup 2" style="text;strokeColor=none;fillColor=none;html=1;fontSize=15;fontStyle=1;verticalAlign=middle;align=center;" vertex="1" parent="WIyWlLk6GJQsqaUBKTNV-1">
          <mxGeometry x="360" y="230" width="100" height="40" as="geometry" />
        </mxCell>
        <mxCell id="jf5f9mkr0oQwujm6HEbA-24" style="edgeStyle=orthogonalEdgeStyle;rounded=0;orthogonalLoop=1;jettySize=auto;html=1;exitX=0.5;exitY=1;exitDx=0;exitDy=0;" edge="1" parent="WIyWlLk6GJQsqaUBKTNV-1" source="jf5f9mkr0oQwujm6HEbA-22">
          <mxGeometry relative="1" as="geometry">
            <mxPoint x="230" y="500" as="targetPoint" />
          </mxGeometry>
        </mxCell>
        <mxCell id="jf5f9mkr0oQwujm6HEbA-22" value="Set &quot;In Queue&quot; &lt;br&gt;as Invoice Status" style="rhombus;whiteSpace=wrap;html=1;" vertex="1" parent="WIyWlLk6GJQsqaUBKTNV-1">
          <mxGeometry x="135" y="300" width="190" height="120" as="geometry" />
        </mxCell>
        <mxCell id="jf5f9mkr0oQwujm6HEbA-25" value="Success Message.&lt;br&gt;(Invoice PDF Generation and send email&lt;br&gt;&amp;nbsp;is in progress - background task )" style="rounded=1;whiteSpace=wrap;html=1;fontSize=12;glass=0;strokeWidth=1;shadow=0;" vertex="1" parent="WIyWlLk6GJQsqaUBKTNV-1">
          <mxGeometry x="82.5" y="500" width="295" height="70" as="geometry" />
        </mxCell>
        <mxCell id="jf5f9mkr0oQwujm6HEbA-28" value="" style="swimlane;startSize=0;fillStyle=dots;gradientColor=default;fillColor=none;dashed=1;dashPattern=8 8;" vertex="1" parent="WIyWlLk6GJQsqaUBKTNV-1">
          <mxGeometry x="470" y="210" width="336" height="420" as="geometry" />
        </mxCell>
        <mxCell id="jf5f9mkr0oQwujm6HEbA-34" value="" style="edgeStyle=orthogonalEdgeStyle;rounded=0;orthogonalLoop=1;jettySize=auto;html=1;" edge="1" parent="jf5f9mkr0oQwujm6HEbA-28" source="jf5f9mkr0oQwujm6HEbA-31" target="jf5f9mkr0oQwujm6HEbA-33">
          <mxGeometry relative="1" as="geometry" />
        </mxCell>
        <mxCell id="jf5f9mkr0oQwujm6HEbA-31" value="Laravel Queue will be process each invoices&amp;nbsp;&lt;br&gt;One by one in background to generate pdf and send invoice" style="rounded=1;whiteSpace=wrap;html=1;fontSize=12;glass=0;strokeWidth=1;shadow=0;" vertex="1" parent="jf5f9mkr0oQwujm6HEbA-28">
          <mxGeometry x="16" y="20" width="304" height="70" as="geometry" />
        </mxCell>
        <mxCell id="jf5f9mkr0oQwujm6HEbA-39" style="edgeStyle=orthogonalEdgeStyle;rounded=0;orthogonalLoop=1;jettySize=auto;html=1;" edge="1" parent="jf5f9mkr0oQwujm6HEbA-28" source="jf5f9mkr0oQwujm6HEbA-33" target="jf5f9mkr0oQwujm6HEbA-28">
          <mxGeometry relative="1" as="geometry" />
        </mxCell>
        <mxCell id="jf5f9mkr0oQwujm6HEbA-41" style="edgeStyle=orthogonalEdgeStyle;rounded=0;orthogonalLoop=1;jettySize=auto;html=1;entryX=0.5;entryY=0;entryDx=0;entryDy=0;" edge="1" parent="jf5f9mkr0oQwujm6HEbA-28" source="jf5f9mkr0oQwujm6HEbA-33" target="jf5f9mkr0oQwujm6HEbA-36">
          <mxGeometry relative="1" as="geometry" />
        </mxCell>
        <mxCell id="jf5f9mkr0oQwujm6HEbA-33" value="Queue" style="rhombus;whiteSpace=wrap;html=1;" vertex="1" parent="jf5f9mkr0oQwujm6HEbA-28">
          <mxGeometry x="118" y="120" width="100" height="90" as="geometry" />
        </mxCell>
        <mxCell id="jf5f9mkr0oQwujm6HEbA-35" value="Set &quot;Sent&quot; as &lt;br&gt;Invoice Status" style="rounded=0;whiteSpace=wrap;html=1;" vertex="1" parent="jf5f9mkr0oQwujm6HEbA-28">
          <mxGeometry x="16" y="260" width="114" height="40" as="geometry" />
        </mxCell>
        <mxCell id="jf5f9mkr0oQwujm6HEbA-47" style="edgeStyle=orthogonalEdgeStyle;rounded=0;orthogonalLoop=1;jettySize=auto;html=1;exitX=0.5;exitY=1;exitDx=0;exitDy=0;entryX=0.5;entryY=0;entryDx=0;entryDy=0;" edge="1" parent="jf5f9mkr0oQwujm6HEbA-28" source="jf5f9mkr0oQwujm6HEbA-36" target="jf5f9mkr0oQwujm6HEbA-46">
          <mxGeometry relative="1" as="geometry" />
        </mxCell>
        <mxCell id="jf5f9mkr0oQwujm6HEbA-36" value="Set &quot;Failed&quot; as &lt;br&gt;Invoice Status" style="rounded=0;whiteSpace=wrap;html=1;" vertex="1" parent="jf5f9mkr0oQwujm6HEbA-28">
          <mxGeometry x="200" y="260" width="114" height="40" as="geometry" />
        </mxCell>
        <mxCell id="jf5f9mkr0oQwujm6HEbA-40" style="edgeStyle=orthogonalEdgeStyle;rounded=0;orthogonalLoop=1;jettySize=auto;html=1;entryX=0.446;entryY=-0.025;entryDx=0;entryDy=0;entryPerimeter=0;" edge="1" parent="jf5f9mkr0oQwujm6HEbA-28" source="jf5f9mkr0oQwujm6HEbA-33" target="jf5f9mkr0oQwujm6HEbA-35">
          <mxGeometry relative="1" as="geometry" />
        </mxCell>
        <mxCell id="jf5f9mkr0oQwujm6HEbA-43" value="On Failed" style="text;html=1;align=center;verticalAlign=middle;resizable=0;points=[];autosize=1;strokeColor=none;fillColor=none;" vertex="1" parent="jf5f9mkr0oQwujm6HEbA-28">
          <mxGeometry x="195" y="210" width="80" height="30" as="geometry" />
        </mxCell>
        <mxCell id="jf5f9mkr0oQwujm6HEbA-46" value="User can resend invoice manually from invoice page" style="rounded=1;whiteSpace=wrap;html=1;fontSize=12;glass=0;strokeWidth=1;shadow=0;" vertex="1" parent="jf5f9mkr0oQwujm6HEbA-28">
          <mxGeometry x="43" y="340" width="250" height="40" as="geometry" />
        </mxCell>
        <mxCell id="jf5f9mkr0oQwujm6HEbA-29" value="Background Process" style="text;strokeColor=none;fillColor=none;html=1;fontSize=15;fontStyle=1;verticalAlign=middle;align=center;" vertex="1" parent="WIyWlLk6GJQsqaUBKTNV-1">
          <mxGeometry x="570" y="160" width="100" height="40" as="geometry" />
        </mxCell>
        <mxCell id="jf5f9mkr0oQwujm6HEbA-32" style="edgeStyle=orthogonalEdgeStyle;rounded=0;orthogonalLoop=1;jettySize=auto;html=1;exitX=1;exitY=0.5;exitDx=0;exitDy=0;entryX=-0.001;entryY=0.385;entryDx=0;entryDy=0;entryPerimeter=0;" edge="1" parent="WIyWlLk6GJQsqaUBKTNV-1" source="jf5f9mkr0oQwujm6HEbA-22" target="jf5f9mkr0oQwujm6HEbA-28">
          <mxGeometry relative="1" as="geometry" />
        </mxCell>
        <mxCell id="jf5f9mkr0oQwujm6HEbA-42" value="On Success" style="text;html=1;align=center;verticalAlign=middle;resizable=0;points=[];autosize=1;strokeColor=none;fillColor=none;" vertex="1" parent="WIyWlLk6GJQsqaUBKTNV-1">
          <mxGeometry x="515" y="418" width="90" height="30" as="geometry" />
        </mxCell>
      </root>
    </mxGraphModel>
  </diagram>
</mxfile>
